<?xml version="1.0" ?><svg xmlns="http://www.w3.org/2000/svg" xmlns:xlink="http://www.w3.org/1999/xlink" version="1.1" id="Layer_1" x="0px" y="0px" width="100%" viewBox="0 0 1024 1024" enable-background="new 0 0 1024 1024" xml:space="preserve">
<path fill="#000000" opacity="1.000000" stroke="none" d=" M376.620392,883.563782   C303.052582,861.034607 239.868286,822.878906 189.623840,764.529968   C178.304138,751.384338 168.105560,737.359802 160.566177,721.610352   C158.186935,716.640259 156.017975,711.523682 156.877884,705.798523   C157.817093,699.545227 161.997467,695.103455 167.996185,693.734985   C175.462265,692.031921 182.938034,694.516907 186.951401,700.649475   C194.457932,712.119751 202.868484,722.856140 212.234436,732.838623   C244.879257,767.632141 283.775208,793.399902 327.315643,812.472778   C357.201355,825.564270 388.383209,834.153625 420.526733,839.333496   C445.410309,843.343445 470.524628,844.831238 495.657104,843.494568   C556.475281,840.260132 612.852234,822.397339 664.909363,790.774231   C707.944458,764.631653 744.450256,731.423340 772.896606,689.824829   C800.488770,649.475159 819.162170,605.255798 827.523071,556.928223   C832.112671,530.399658 833.322571,503.546021 831.434814,476.810730   C825.673157,395.212402 794.370483,325.077667 734.055054,269.115356   C689.545776,227.818436 636.953796,201.829666 577.240295,190.342941   C553.783081,185.830627 530.100830,183.598236 506.290649,184.524734   C466.832764,186.060150 428.932343,194.884109 392.728027,210.849518   C348.040466,230.555801 309.779694,258.699890 278.997772,296.791718   C244.320511,339.703949 222.580627,388.298126 214.095932,442.889832   C210.343079,467.036316 208.999268,491.236267 211.444946,515.512085   C214.614853,546.976562 222.550583,577.015015 240.566330,603.633789   C254.864914,624.760376 274.526001,637.978394 299.846375,641.270874   C324.806152,644.516357 342.640167,635.658569 352.464325,609.476257   C357.979828,594.777039 359.575043,579.118713 362.610687,563.829895   C370.919006,521.985413 379.109070,480.116760 387.134155,438.217102   C390.442474,420.944061 394.135498,403.741608 396.735901,386.330688   C399.550323,367.486694 386.588409,361.742340 374.011627,361.445618   C361.019470,361.139099 348.014832,361.370514 335.015747,361.335876   C333.210358,361.331055 331.346436,361.656189 329.141174,360.502502   C329.849274,352.769592 332.114288,345.158142 333.540741,337.410095   C335.224976,328.261780 337.154999,319.158112 338.778931,309.999664   C339.467499,306.116333 341.049408,304.534882 345.346985,304.567261   C373.343658,304.778076 401.343658,304.551086 429.339996,304.782532   C434.522461,304.825378 436.830627,303.068634 437.763580,298.069214   C441.265198,279.305420 445.101501,260.604156 448.619232,241.843246   C449.429657,237.521164 450.756409,235.372070 455.893921,235.485626   C473.384308,235.872238 490.888428,235.626480 508.387299,235.652679   C510.174561,235.655365 512.050171,235.311218 514.120239,236.665039   C509.642731,259.656769 505.147034,282.741669 500.515808,306.522552   C509.809937,306.522552 518.415283,306.595245 527.018127,306.480621   C529.794678,306.443665 530.255310,304.158386 530.686768,301.916656   C534.639587,281.379333 538.665527,260.855988 542.588989,240.313095   C543.107666,237.597656 543.801514,235.616318 547.166687,235.632767   C565.331055,235.721558 583.496033,235.695892 601.660706,235.735458   C602.296326,235.736847 602.931335,236.009674 604.336548,236.333298   C599.758118,259.437225 595.201904,282.429230 590.513611,306.087860   C597.935181,306.872009 604.823547,307.375427 611.601196,308.661041   C635.910706,313.272247 657.713196,322.974792 675.258545,340.776367   C715.919312,382.031006 706.054688,457.715302 641.398560,481.211121   C638.811462,482.151276 635.957092,482.563507 633.597778,484.691742   C635.559692,487.324921 638.512512,486.909668 640.900330,487.640381   C671.263123,496.931946 692.649292,515.521057 700.743896,546.951477   C706.795593,570.449402 702.702026,593.183838 692.766296,614.969238   C679.197144,644.721436 655.702209,664.090332 626.506775,677.151001   C605.384644,686.599976 583.057922,691.634399 560.134949,694.493896   C548.719788,695.917725 537.264771,696.394592 525.823242,697.204407   C522.331055,697.451477 520.925781,698.865845 520.290527,702.216187   C516.455994,722.438049 512.343445,742.607666 508.585449,762.843262   C507.912018,766.469299 506.353607,767.424255 502.953369,767.401245   C485.455292,767.282837 467.955627,767.276245 450.457458,767.384460   C446.331055,767.409912 445.331970,766.013000 446.155609,761.950256   C450.278687,741.612671 454.070404,721.207947 458.181885,700.867920   C458.885406,697.387756 457.953430,696.277649 454.599091,696.329224   C448.267670,696.426697 441.932190,696.454102 435.601562,696.337952   C431.222992,696.257629 429.111542,698.040466 428.278015,702.530579   C424.522095,722.763733 420.337555,742.917542 416.613647,763.156250   C415.958923,766.714600 414.409271,767.381226 411.311218,767.366394   C392.979401,767.278564 374.646484,767.232239 356.315308,767.363159   C351.998566,767.393982 351.372437,765.777039 352.162231,761.883850   C356.153961,742.207275 359.959351,722.492310 363.717133,702.769287   C364.753784,697.328430 363.881104,696.328857 358.162109,696.406433   C342.672089,696.616577 327.182281,697.303345 311.696106,697.206604   C295.697388,697.106750 279.789032,695.483032 264.401550,690.781799   C229.736511,680.190735 205.016434,657.434814 187.086090,626.674805   C169.900543,597.192444 160.776627,565.105774 156.523254,531.406799   C153.593887,508.197632 152.838638,484.955109 154.760971,461.686157   C160.046783,397.704071 181.358795,339.362122 218.277481,286.956940   C253.856735,236.452972 299.211456,196.906113 354.783752,169.595581   C388.585205,152.984146 424.256409,142.157639 461.566498,136.474228   C486.212280,132.719955 510.954590,131.873993 535.729736,132.802063   C601.255371,135.256592 662.179443,153.351791 717.806885,188.337036   C784.180725,230.080902 832.217896,287.475708 862.319275,359.755280   C873.664856,386.998383 881.138367,415.400330 885.580322,444.664429   C889.497681,470.472504 890.411194,496.404022 889.093506,522.308533   C886.792114,567.550354 876.482666,611.128235 858.248474,652.669678   C821.476624,736.443970 763.230530,800.978088 683.986328,846.661072   C645.268311,868.981445 604.049622,884.576965 560.135803,892.806519   C525.112549,899.370056 489.760468,901.241211 454.241669,898.234680   C428.027252,896.015808 402.239624,891.251160 376.620392,883.563782  M510.461365,633.649719   C522.965515,633.701721 535.358398,632.351074 547.469116,629.408142   C567.178955,624.618774 584.215027,615.298706 595.176025,597.502502   C609.269348,574.620667 606.246277,544.067871 579.079102,529.614868   C567.844116,523.637817 555.896118,520.427246 543.392029,519.447510   C517.636169,517.429443 491.811371,518.800171 466.020172,518.381958   C462.243774,518.320801 459.759613,518.986755 459.099457,523.491577   C457.946045,531.362122 456.187988,539.143921 454.684265,546.963135   C449.606567,573.366699 444.500549,599.764771 439.470642,626.177429   C438.102173,633.363403 438.401093,633.638184 446.027100,633.644775   C467.175354,633.663147 488.323578,633.649963 510.461365,633.649719  M477.629089,423.003876   C475.470093,434.758148 473.474670,446.546295 471.052094,458.245972   C470.328949,461.738464 471.119812,462.813721 474.505737,462.741119   C499.115387,462.213440 523.785767,464.176575 548.331665,461.551300   C562.653870,460.019470 576.385376,456.241516 588.183716,447.242584   C614.383606,427.258972 615.107056,383.545258 578.735168,368.350739   C568.157166,363.931671 557.063110,361.812805 545.760254,361.485107   C528.955444,360.997955 512.126099,361.420166 495.312103,361.148651   C490.877869,361.077057 489.127167,362.806885 488.368866,366.919952   C484.969177,385.360168 481.388397,403.766968 477.629089,423.003876  z"/>
</svg>